<?xml version="1.0" encoding="utf-8"?>
<!-- Generator: Adobe Illustrator 24.0.1, SVG Export Plug-In . SVG Version: 6.00 Build 0)  -->
<svg version="1.1" id="Capa_1" xmlns="http://www.w3.org/2000/svg" xmlns:xlink="http://www.w3.org/1999/xlink" x="0px" y="0px"
	 viewBox="0 0 270 150" style="enable-background:new 0 0 270 150;" xml:space="preserve">
<style type="text/css">
	.st0{fill:#253069;}
</style>
<g>
	<polygon class="st0" points="187.2,58 179.3,58 179.3,86 187.2,86 	"/>
	<g>
		<path class="st0" d="M19,64.1h6.1c0.9,0,1.8,0.1,2.6,0.2c0.8,0.1,1.6,0.4,2.2,0.8c0.6,0.4,1.1,0.9,1.5,1.6
			c0.4,0.7,0.6,1.6,0.6,2.7c0,1.1-0.2,2-0.6,2.8c-0.4,0.7-0.9,1.2-1.5,1.6c-0.6,0.4-1.4,0.6-2.2,0.8c-0.8,0.1-1.7,0.2-2.6,0.2H19
			V64.1z M19,80.9h8.3c2.2,0,4.1-0.3,5.7-1c1.6-0.6,2.8-1.5,3.8-2.6c1-1.1,1.7-2.3,2.2-3.7c0.4-1.4,0.7-2.8,0.7-4.2
			c0-1.5-0.2-2.9-0.7-4.3c-0.4-1.4-1.2-2.6-2.2-3.6c-1-1.1-2.3-1.9-3.8-2.6c-1.6-0.6-3.5-1-5.7-1H11.2v27.7l7.8,0V80.9z"/>
		<path class="st0" d="M62.5,73c-0.9,0.8-2.3,1.2-4,1.2h-8.6V64.1h8.6c1.8,0,3.1,0.4,4,1.2c0.9,0.8,1.3,2,1.3,3.8
			C63.9,70.9,63.4,72.2,62.5,73 M72,91.9c-0.2-0.7-0.3-1.5-0.4-2.3c-0.1-0.8-0.1-1.6-0.2-2.4c0-0.6,0-1-0.1-1.5c0-0.2,0-0.4,0-0.5
			c-0.1-0.9-0.2-1.8-0.4-2.7c-0.2-0.9-0.5-1.7-0.9-2.5c-0.4-0.8-0.9-1.4-1.6-2c-0.6-0.5-1.4-1-2.4-1.2v-0.1c2-0.8,3.4-2,4.3-3.5
			c0.9-1.5,1.3-3.4,1.3-5.4c0-1.4-0.2-2.6-0.7-3.8c-0.5-1.2-1.2-2.2-2.1-3.1c-0.9-0.9-2-1.6-3.3-2.1c-1.3-0.5-2.7-0.8-4.3-0.8H42
			v27.7l7.9,0v-6h7.8c2,0,3.4,0.4,4.3,1.3c0.9,0.9,1.4,2.2,1.7,4.1c0,0.2,0,0.4,0.1,0.6c0.2,1.3,0.3,2.5,0.4,3.9
			c0.1,1.6,0.4,2.9,0.8,4.1h7.9C72.4,93.2,72.1,92.6,72,91.9"/>
		<path class="st0" d="M84.1,84.2c-0.8-1.1-1.3-2.4-1.7-3.8c-0.4-1.4-0.5-2.9-0.5-4.4c0-1.6,0.2-3.1,0.5-4.5
			c0.3-1.5,0.9-2.8,1.7-3.9c0.8-1.2,1.8-2.1,3-2.8c1.2-0.7,2.7-1,4.5-1c1.8,0,3.3,0.3,4.5,1c1.2,0.7,2.2,1.6,3,2.8
			c0.8,1.1,1.3,2.5,1.7,3.9c0.3,1.5,0.5,3,0.5,4.5c0,1.5-0.2,3-0.5,4.4c-0.4,1.4-0.9,2.7-1.7,3.8c-0.4,0.6-0.9,1.1-1.4,1.6l9.1,0
			c0.4-0.8,0.8-1.6,1.1-2.5c0.8-2.3,1.2-4.7,1.2-7.3c0-2.7-0.4-5.1-1.2-7.4c-0.8-2.3-1.9-4.3-3.4-6c-1.5-1.7-3.3-3-5.5-4
			c-2.2-1-4.6-1.4-7.4-1.4c-2.7,0-5.2,0.5-7.4,1.4c-2.2,1-4,2.3-5.5,4c-1.5,1.7-2.7,3.7-3.4,6c-0.8,2.3-1.2,4.8-1.2,7.4
			c0,2.6,0.4,5,1.2,7.3c0.3,0.9,0.7,1.7,1.1,2.5l9.1,0C85,85.3,84.5,84.8,84.1,84.2"/>
	</g>
	<polygon class="st0" points="122.7,79 137.6,79 137.6,72.9 122.7,72.9 122.7,64.6 139.9,64.6 139.9,58 114.8,58 114.8,93.6 
		122.7,93.6 	"/>
	<polygon class="st0" points="176.4,58 168.5,58 168.5,71.7 154.1,71.7 154.1,58 146.2,58 146.2,86 154.1,86 154.1,78.3 168.5,78.3 
		168.5,86 176.4,86 	"/>
	<polygon class="st0" points="200.8,87.1 200.8,86.1 200.8,58 192.9,58 192.9,86.1 192.9,93.7 218.2,93.7 218.2,87.1 	"/>
	<g>
		<path class="st0" d="M227.1,84.2c-0.8-1.1-1.3-2.4-1.7-3.8c-0.3-1.4-0.5-2.9-0.5-4.4c0-1.6,0.2-3.1,0.5-4.5
			c0.4-1.5,0.9-2.8,1.7-3.9c0.8-1.2,1.8-2.1,3-2.8c1.2-0.7,2.7-1,4.5-1c1.8,0,3.3,0.3,4.5,1c1.2,0.7,2.2,1.6,3,2.8
			c0.8,1.1,1.3,2.5,1.7,3.9c0.3,1.5,0.5,3,0.5,4.5c0,1.5-0.2,3-0.5,4.4c-0.4,1.4-0.9,2.7-1.7,3.8c-0.5,0.7-1.1,1.4-1.8,1.9l9.3,0
			c0.5-0.9,0.9-1.8,1.3-2.8c0.8-2.3,1.2-4.7,1.2-7.3c0-2.7-0.4-5.1-1.2-7.4c-0.8-2.3-2-4.3-3.4-6c-1.5-1.7-3.3-3-5.5-4
			c-2.2-1-4.6-1.5-7.4-1.5c-2.7,0-5.2,0.5-7.4,1.5c-2.2,1-4,2.3-5.5,4c-1.5,1.7-2.6,3.7-3.4,6c-0.8,2.3-1.2,4.8-1.2,7.4
			c0,2.6,0.4,5,1.2,7.3c0.4,1,0.8,1.9,1.3,2.8l9.3,0C228.2,85.6,227.6,85,227.1,84.2"/>
		<path class="st0" d="M255.5,59.5c0.1,0,0.2,0,0.3,0c0.1,0,0.2,0,0.3-0.1c0.1,0,0.1-0.1,0.2-0.2c0-0.1,0.1-0.2,0.1-0.3
			c0-0.1,0-0.2-0.1-0.3c-0.1-0.1-0.1-0.1-0.2-0.2c-0.1,0-0.2-0.1-0.3-0.1c-0.1,0-0.2,0-0.3,0h-0.8v1.1H255.5z M254.8,61.7h-0.6v-3.8
			h1.4c0.5,0,0.8,0.1,1,0.3c0.2,0.2,0.4,0.5,0.4,0.8c0,0.3-0.1,0.6-0.3,0.8c-0.2,0.2-0.4,0.3-0.7,0.3l1.1,1.7h-0.7l-1-1.6h-0.6V61.7
			z M258.1,59.7c0-0.4-0.1-0.8-0.2-1.2c-0.1-0.4-0.3-0.7-0.6-0.9c-0.2-0.3-0.5-0.4-0.8-0.6c-0.3-0.1-0.7-0.2-1-0.2
			c-0.4,0-0.7,0.1-1,0.2c-0.3,0.1-0.6,0.3-0.8,0.6c-0.2,0.3-0.4,0.6-0.6,0.9c-0.1,0.4-0.2,0.7-0.2,1.2c0,0.4,0.1,0.8,0.2,1.1
			c0.1,0.3,0.3,0.6,0.5,0.9c0.2,0.3,0.5,0.5,0.8,0.6c0.3,0.2,0.7,0.2,1.1,0.2c0.4,0,0.7-0.1,1-0.2c0.3-0.1,0.6-0.3,0.8-0.6
			c0.2-0.3,0.4-0.6,0.6-0.9C258,60.5,258.1,60.1,258.1,59.7 M258.8,59.7c0,0.5-0.1,1-0.3,1.4c-0.2,0.4-0.4,0.8-0.7,1.1
			c-0.3,0.3-0.7,0.5-1.1,0.7c-0.4,0.2-0.8,0.2-1.3,0.2c-0.5,0-1-0.1-1.4-0.3c-0.4-0.2-0.8-0.4-1.1-0.7c-0.3-0.3-0.5-0.7-0.7-1.1
			c-0.2-0.4-0.3-0.9-0.3-1.4c0-0.5,0.1-1,0.3-1.4c0.2-0.4,0.4-0.8,0.7-1.1c0.3-0.3,0.7-0.5,1.1-0.7c0.4-0.2,0.8-0.2,1.3-0.2
			c0.4,0,0.9,0.1,1.3,0.2c0.4,0.2,0.8,0.4,1.1,0.7c0.3,0.3,0.6,0.7,0.7,1.1C258.7,58.7,258.8,59.2,258.8,59.7"/>
	</g>
</g>
</svg>
